<?xml version="1.0" encoding="UTF-8" standalone="no"?>
<!DOCTYPE svg PUBLIC "-//W3C//DTD SVG 1.1//EN"
 "http://www.w3.org/Graphics/SVG/1.1/DTD/svg11.dtd">
<!-- Generated by graphviz version 2.40.1 (20161225.0304)
 -->
<!-- Title: G Pages: 1 -->
<svg width="208pt" height="215pt"
 viewBox="0.00 0.00 207.95 214.80" xmlns="http://www.w3.org/2000/svg" xmlns:xlink="http://www.w3.org/1999/xlink">
<g id="graph0" class="graph" transform="scale(1 1) rotate(0) translate(4 210.8004)">
<title>G</title>
<polygon fill="#ffffff" stroke="transparent" points="-4,4 -4,-210.8004 203.9464,-210.8004 203.9464,4 -4,4"/>
<text text-anchor="middle" x="17.3303" y="-190.2004" font-family="Times,serif" font-size="14.00" fill="#000000">3rd</text>
<!-- 1 -->
<g id="node1" class="node">
<title>1</title>
<ellipse fill="#ff6347" stroke="#000000" cx="27" cy="-60.0764" rx="27" ry="18"/>
<text text-anchor="middle" x="27" y="-55.8764" font-family="Times,serif" font-size="14.00" fill="#000000">1</text>
</g>
<!-- 2 -->
<g id="node2" class="node">
<title>2</title>
<ellipse fill="#f0e68c" stroke="#000000" cx="100.1679" cy="-91.0809" rx="27" ry="18"/>
<text text-anchor="middle" x="100.1679" y="-86.8809" font-family="Times,serif" font-size="14.00" fill="#000000">2</text>
</g>
<!-- 1&#45;&#45;2 -->
<g id="edge1" class="edge">
<title>1&#45;&#45;2</title>
<path fill="none" stroke="#000000" d="M50.1508,-69.8864C58.7754,-73.5411 68.5567,-77.6858 77.1678,-81.3347"/>
</g>
<!-- 3 -->
<g id="node3" class="node">
<title>3</title>
<ellipse fill="#ffc0cb" stroke="#000000" cx="131.2246" cy="-18" rx="27" ry="18"/>
<text text-anchor="middle" x="131.2246" y="-13.8" font-family="Times,serif" font-size="14.00" fill="#000000">3</text>
</g>
<!-- 2&#45;&#45;3 -->
<g id="edge2" class="edge">
<title>2&#45;&#45;3</title>
<path fill="none" stroke="#000000" d="M107.5279,-73.7617C112.4428,-62.1965 118.8837,-47.0399 123.8098,-35.4481"/>
</g>
<!-- 4 -->
<g id="node4" class="node">
<title>4</title>
<ellipse fill="#ffff00" stroke="#000000" cx="68.4896" cy="-164.0004" rx="27" ry="18"/>
<text text-anchor="middle" x="68.4896" y="-159.8004" font-family="Times,serif" font-size="14.00" fill="#000000">4</text>
</g>
<!-- 2&#45;&#45;4 -->
<g id="edge3" class="edge">
<title>2&#45;&#45;4</title>
<path fill="none" stroke="#000000" d="M92.4995,-108.7327C87.5189,-120.1974 81.0539,-135.0789 76.0874,-146.5112"/>
</g>
<!-- 5 -->
<g id="node5" class="node">
<title>5</title>
<ellipse fill="#00ffff" stroke="#000000" cx="172.9464" cy="-122.9037" rx="27" ry="18"/>
<text text-anchor="middle" x="172.9464" y="-118.7037" font-family="Times,serif" font-size="14.00" fill="#000000">5</text>
</g>
<!-- 2&#45;&#45;5 -->
<g id="edge4" class="edge">
<title>2&#45;&#45;5</title>
<path fill="none" stroke="#000000" d="M122.7966,-100.9754C131.4758,-104.7705 141.3798,-109.1011 150.0811,-112.9057"/>
</g>
</g>
</svg>
