<?xml version="1.0" encoding="UTF-8" standalone="no"?>
<!DOCTYPE svg PUBLIC "-//W3C//DTD SVG 1.1//EN"
 "http://www.w3.org/Graphics/SVG/1.1/DTD/svg11.dtd">
<!-- Generated by graphviz version 2.40.1 (20161225.0304)
 -->
<!-- Title: %0 Pages: 1 -->
<svg width="242pt" height="229pt"
 viewBox="0.00 0.00 242.00 228.80" xmlns="http://www.w3.org/2000/svg" xmlns:xlink="http://www.w3.org/1999/xlink">
<g id="graph0" class="graph" transform="scale(1 1) rotate(0) translate(4 224.8)">
<title>%0</title>
<polygon fill="#ffffff" stroke="transparent" points="-4,4 -4,-224.8 238,-224.8 238,4 -4,4"/>
<text text-anchor="middle" x="117" y="-8.2" font-family="Times,serif" font-size="14.00" fill="#000000">2 centroid</text>
<!-- 2 -->
<g id="node1" class="node">
<title>2</title>
<ellipse fill="#ffb6c1" stroke="#000000" cx="63" cy="-130.8" rx="27" ry="18"/>
<text text-anchor="middle" x="63" y="-126.6" font-family="Times,serif" font-size="14.00" fill="#000000">2</text>
</g>
<!-- 4 -->
<g id="node5" class="node">
<title>4</title>
<ellipse fill="none" stroke="#000000" cx="27" cy="-58.8" rx="27" ry="18"/>
<text text-anchor="middle" x="27" y="-54.6" font-family="Times,serif" font-size="14.00" fill="#000000">4</text>
</g>
<!-- 2&#45;&gt;4 -->
<g id="edge4" class="edge">
<title>2&#45;&gt;4</title>
<path fill="none" stroke="#000000" d="M54.2854,-113.3708C48.6253,-102.0506 41.2784,-87.3568 35.6343,-76.0687"/>
</g>
<!-- 5 -->
<g id="node6" class="node">
<title>5</title>
<ellipse fill="none" stroke="#000000" cx="99" cy="-58.8" rx="27" ry="18"/>
<text text-anchor="middle" x="99" y="-54.6" font-family="Times,serif" font-size="14.00" fill="#000000">5</text>
</g>
<!-- 2&#45;&gt;5 -->
<g id="edge5" class="edge">
<title>2&#45;&gt;5</title>
<path fill="none" stroke="#000000" d="M71.7146,-113.3708C77.3747,-102.0506 84.7216,-87.3568 90.3657,-76.0687"/>
</g>
<!-- 1 -->
<g id="node2" class="node">
<title>1</title>
<ellipse fill="#ffff00" stroke="#000000" cx="135" cy="-202.8" rx="27" ry="18"/>
<text text-anchor="middle" x="135" y="-198.6" font-family="Times,serif" font-size="14.00" fill="#000000">1</text>
</g>
<!-- 1&#45;&gt;2 -->
<g id="edge1" class="edge">
<title>1&#45;&gt;2</title>
<path fill="none" stroke="#000000" d="M119.7307,-187.5307C107.512,-175.312 90.4602,-158.2602 78.2473,-146.0473"/>
</g>
<!-- 3 -->
<g id="node3" class="node">
<title>3</title>
<ellipse fill="none" stroke="#000000" cx="135" cy="-130.8" rx="27" ry="18"/>
<text text-anchor="middle" x="135" y="-126.6" font-family="Times,serif" font-size="14.00" fill="#000000">3</text>
</g>
<!-- 1&#45;&gt;3 -->
<g id="edge2" class="edge">
<title>1&#45;&gt;3</title>
<path fill="none" stroke="#000000" d="M135,-184.6314C135,-173.8 135,-160.0876 135,-149.2133"/>
</g>
<!-- 6 -->
<g id="node4" class="node">
<title>6</title>
<ellipse fill="none" stroke="#000000" cx="207" cy="-130.8" rx="27" ry="18"/>
<text text-anchor="middle" x="207" y="-126.6" font-family="Times,serif" font-size="14.00" fill="#000000">6</text>
</g>
<!-- 1&#45;&gt;6 -->
<g id="edge3" class="edge">
<title>1&#45;&gt;6</title>
<path fill="none" stroke="#000000" d="M150.2693,-187.5307C162.488,-175.312 179.5398,-158.2602 191.7527,-146.0473"/>
</g>
</g>
</svg>
