<?xml version="1.0" encoding="UTF-8" standalone="no"?>
<!DOCTYPE svg PUBLIC "-//W3C//DTD SVG 1.1//EN"
 "http://www.w3.org/Graphics/SVG/1.1/DTD/svg11.dtd">
<!-- Generated by graphviz version 2.40.1 (20161225.0304)
 -->
<!-- Title: D Pages: 1 -->
<svg width="144pt" height="85pt"
 viewBox="0.00 0.00 144.00 84.80" xmlns="http://www.w3.org/2000/svg" xmlns:xlink="http://www.w3.org/1999/xlink">
<g id="graph0" class="graph" transform="scale(1 1) rotate(0) translate(4 80.8)">
<title>D</title>
<polygon fill="#ffffff" stroke="transparent" points="-4,4 -4,-80.8 140,-80.8 140,4 -4,4"/>
<text text-anchor="middle" x="68" y="-8.2" font-family="Times,serif" font-size="14.00" fill="#000000">Example Array b</text>
<!-- some_node -->
<g id="node1" class="node">
<title>some_node</title>
<polygon fill="#ffb6c1" stroke="transparent" points="8,-47.8 8,-69.8 28,-69.8 28,-47.8 8,-47.8"/>
<polygon fill="none" stroke="#000000" points="8,-47.8 8,-69.8 28,-69.8 28,-47.8 8,-47.8"/>
<text text-anchor="start" x="11" y="-54.2" font-family="Times,serif" font-size="14.00" fill="#000000"> 2 </text>
<polygon fill="#ffb6c1" stroke="transparent" points="28,-47.8 28,-69.8 48,-69.8 48,-47.8 28,-47.8"/>
<polygon fill="none" stroke="#000000" points="28,-47.8 28,-69.8 48,-69.8 48,-47.8 28,-47.8"/>
<text text-anchor="start" x="31" y="-54.2" font-family="Times,serif" font-size="14.00" fill="#000000"> 3 </text>
<polygon fill="#ffb6c1" stroke="transparent" points="48,-47.8 48,-69.8 68,-69.8 68,-47.8 48,-47.8"/>
<polygon fill="none" stroke="#000000" points="48,-47.8 48,-69.8 68,-69.8 68,-47.8 48,-47.8"/>
<text text-anchor="start" x="51" y="-54.2" font-family="Times,serif" font-size="14.00" fill="#000000"> 4 </text>
<polygon fill="#ffb6c1" stroke="transparent" points="68,-47.8 68,-69.8 88,-69.8 88,-47.8 68,-47.8"/>
<polygon fill="none" stroke="#000000" points="68,-47.8 68,-69.8 88,-69.8 88,-47.8 68,-47.8"/>
<text text-anchor="start" x="71" y="-54.2" font-family="Times,serif" font-size="14.00" fill="#000000"> 3 </text>
<polygon fill="#ffb6c1" stroke="transparent" points="88,-47.8 88,-69.8 108,-69.8 108,-47.8 88,-47.8"/>
<polygon fill="none" stroke="#000000" points="88,-47.8 88,-69.8 108,-69.8 108,-47.8 88,-47.8"/>
<text text-anchor="start" x="91" y="-54.2" font-family="Times,serif" font-size="14.00" fill="#000000"> 2 </text>
<polygon fill="#ffb6c1" stroke="transparent" points="108,-47.8 108,-69.8 128,-69.8 128,-47.8 108,-47.8"/>
<polygon fill="none" stroke="#000000" points="108,-47.8 108,-69.8 128,-69.8 128,-47.8 108,-47.8"/>
<text text-anchor="start" x="111" y="-54.2" font-family="Times,serif" font-size="14.00" fill="#000000"> 4 </text>
</g>
</g>
</svg>
