<?xml version="1.0" encoding="UTF-8" standalone="no"?>
<!DOCTYPE svg PUBLIC "-//W3C//DTD SVG 1.1//EN"
 "http://www.w3.org/Graphics/SVG/1.1/DTD/svg11.dtd">
<!-- Generated by graphviz version 2.40.1 (20161225.0304)
 -->
<!-- Title: D Pages: 1 -->
<svg width="158pt" height="102pt"
 viewBox="0.00 0.00 158.00 101.60" xmlns="http://www.w3.org/2000/svg" xmlns:xlink="http://www.w3.org/1999/xlink">
<g id="graph0" class="graph" transform="scale(1 1) rotate(0) translate(4 97.6)">
<title>D</title>
<polygon fill="#ffffff" stroke="transparent" points="-4,4 -4,-97.6 154,-97.6 154,4 -4,4"/>
<text text-anchor="middle" x="75" y="-25" font-family="Times,serif" font-size="14.00" fill="#000000">Array b does not </text>
<text text-anchor="middle" x="75" y="-8.2" font-family="Times,serif" font-size="14.00" fill="#000000">exist for this Array a</text>
<!-- some_node -->
<g id="node1" class="node">
<title>some_node</title>
<polygon fill="#f0e3ff" stroke="transparent" points="8,-64.6 8,-86.6 28,-86.6 28,-64.6 8,-64.6"/>
<polygon fill="none" stroke="#000000" points="8,-64.6 8,-86.6 28,-86.6 28,-64.6 8,-64.6"/>
<text text-anchor="start" x="11" y="-71" font-family="Times,serif" font-size="14.00" fill="#000000"> 1 </text>
<polygon fill="#f0e3ff" stroke="transparent" points="28,-64.6 28,-86.6 48,-86.6 48,-64.6 28,-64.6"/>
<polygon fill="none" stroke="#000000" points="28,-64.6 28,-86.6 48,-86.6 48,-64.6 28,-64.6"/>
<text text-anchor="start" x="31" y="-71" font-family="Times,serif" font-size="14.00" fill="#000000"> 2 </text>
<polygon fill="#f0e3ff" stroke="transparent" points="48,-64.6 48,-86.6 68,-86.6 68,-64.6 48,-64.6"/>
<polygon fill="none" stroke="#000000" points="48,-64.6 48,-86.6 68,-86.6 68,-64.6 48,-64.6"/>
<text text-anchor="start" x="51" y="-71" font-family="Times,serif" font-size="14.00" fill="#000000"> 5 </text>
<polygon fill="#f0e3ff" stroke="transparent" points="68,-64.6 68,-86.6 88,-86.6 88,-64.6 68,-64.6"/>
<polygon fill="none" stroke="#000000" points="68,-64.6 68,-86.6 88,-86.6 88,-64.6 68,-64.6"/>
<text text-anchor="start" x="71" y="-71" font-family="Times,serif" font-size="14.00" fill="#000000"> 8 </text>
<polygon fill="#f0e3ff" stroke="transparent" points="88,-64.6 88,-86.6 115,-86.6 115,-64.6 88,-64.6"/>
<polygon fill="none" stroke="#000000" points="88,-64.6 88,-86.6 115,-86.6 115,-64.6 88,-64.6"/>
<text text-anchor="start" x="91" y="-71" font-family="Times,serif" font-size="14.00" fill="#000000"> 11 </text>
<polygon fill="#f0e3ff" stroke="transparent" points="115,-64.6 115,-86.6 142,-86.6 142,-64.6 115,-64.6"/>
<polygon fill="none" stroke="#000000" points="115,-64.6 115,-86.6 142,-86.6 142,-64.6 115,-64.6"/>
<text text-anchor="start" x="118" y="-71" font-family="Times,serif" font-size="14.00" fill="#000000"> 12 </text>
</g>
</g>
</svg>
