<?xml version="1.0" encoding="UTF-8" standalone="no"?>
<!DOCTYPE svg PUBLIC "-//W3C//DTD SVG 1.1//EN"
 "http://www.w3.org/Graphics/SVG/1.1/DTD/svg11.dtd">
<!-- Generated by graphviz version 2.40.1 (20161225.0304)
 -->
<!-- Title: %0 Pages: 1 -->
<svg width="206pt" height="229pt"
 viewBox="0.00 0.00 206.00 228.80" xmlns="http://www.w3.org/2000/svg" xmlns:xlink="http://www.w3.org/1999/xlink">
<g id="graph0" class="graph" transform="scale(1 1) rotate(0) translate(4 224.8)">
<title>%0</title>
<polygon fill="#ffffff" stroke="transparent" points="-4,4 -4,-224.8 202,-224.8 202,4 -4,4"/>
<text text-anchor="middle" x="99" y="-8.2" font-family="Times,serif" font-size="14.00" fill="#000000">now 2 is the only centroid</text>
<!-- 2 -->
<g id="node1" class="node">
<title>2</title>
<ellipse fill="#ffb6c1" stroke="#000000" cx="99" cy="-130.8" rx="27" ry="18"/>
<text text-anchor="middle" x="99" y="-126.6" font-family="Times,serif" font-size="14.00" fill="#000000">2</text>
</g>
<!-- 3 -->
<g id="node3" class="node">
<title>3</title>
<ellipse fill="none" stroke="#000000" cx="27" cy="-58.8" rx="27" ry="18"/>
<text text-anchor="middle" x="27" y="-54.6" font-family="Times,serif" font-size="14.00" fill="#000000">3</text>
</g>
<!-- 2&#45;&gt;3 -->
<g id="edge2" class="edge">
<title>2&#45;&gt;3</title>
<path fill="none" stroke="#000000" d="M83.7307,-115.5307C71.512,-103.312 54.4602,-86.2602 42.2473,-74.0473"/>
</g>
<!-- 4 -->
<g id="node5" class="node">
<title>4</title>
<ellipse fill="none" stroke="#000000" cx="99" cy="-58.8" rx="27" ry="18"/>
<text text-anchor="middle" x="99" y="-54.6" font-family="Times,serif" font-size="14.00" fill="#000000">4</text>
</g>
<!-- 2&#45;&gt;4 -->
<g id="edge4" class="edge">
<title>2&#45;&gt;4</title>
<path fill="none" stroke="#000000" d="M99,-112.6314C99,-101.8 99,-88.0876 99,-77.2133"/>
</g>
<!-- 5 -->
<g id="node6" class="node">
<title>5</title>
<ellipse fill="none" stroke="#000000" cx="171" cy="-58.8" rx="27" ry="18"/>
<text text-anchor="middle" x="171" y="-54.6" font-family="Times,serif" font-size="14.00" fill="#000000">5</text>
</g>
<!-- 2&#45;&gt;5 -->
<g id="edge5" class="edge">
<title>2&#45;&gt;5</title>
<path fill="none" stroke="#000000" d="M114.2693,-115.5307C126.488,-103.312 143.5398,-86.2602 155.7527,-74.0473"/>
</g>
<!-- 1 -->
<g id="node2" class="node">
<title>1</title>
<ellipse fill="#ffff00" stroke="#000000" cx="135" cy="-202.8" rx="27" ry="18"/>
<text text-anchor="middle" x="135" y="-198.6" font-family="Times,serif" font-size="14.00" fill="#000000">1</text>
</g>
<!-- 1&#45;&gt;2 -->
<g id="edge1" class="edge">
<title>1&#45;&gt;2</title>
<path fill="none" stroke="#000000" d="M126.2854,-185.3708C120.6253,-174.0506 113.2784,-159.3568 107.6343,-148.0687"/>
</g>
<!-- 6 -->
<g id="node4" class="node">
<title>6</title>
<ellipse fill="none" stroke="#000000" cx="171" cy="-130.8" rx="27" ry="18"/>
<text text-anchor="middle" x="171" y="-126.6" font-family="Times,serif" font-size="14.00" fill="#000000">6</text>
</g>
<!-- 1&#45;&gt;6 -->
<g id="edge3" class="edge">
<title>1&#45;&gt;6</title>
<path fill="none" stroke="#000000" d="M143.7146,-185.3708C149.3747,-174.0506 156.7216,-159.3568 162.3657,-148.0687"/>
</g>
</g>
</svg>
