<?xml version="1.0" encoding="UTF-8" standalone="no"?>
<!DOCTYPE svg PUBLIC "-//W3C//DTD SVG 1.1//EN"
 "http://www.w3.org/Graphics/SVG/1.1/DTD/svg11.dtd">
<!-- Generated by graphviz version 2.40.1 (20161225.0304)
 -->
<!-- Title: %0 Pages: 1 -->
<svg width="149pt" height="402pt"
 viewBox="0.00 0.00 149.00 401.60" xmlns="http://www.w3.org/2000/svg" xmlns:xlink="http://www.w3.org/1999/xlink">
<g id="graph0" class="graph" transform="scale(1 1) rotate(0) translate(4 397.6)">
<title>%0</title>
<polygon fill="#ffffff" stroke="transparent" points="-4,4 -4,-397.6 145,-397.6 145,4 -4,4"/>
<text text-anchor="middle" x="70.5" y="-58.6" font-family="Times,serif" font-size="14.00" fill="#000000"> &#160;1&#45;&#45;2 and 2&#45;&#45;3 is to </text>
<text text-anchor="middle" x="70.5" y="-41.8" font-family="Times,serif" font-size="14.00" fill="#000000">be traversed once </text>
<text text-anchor="middle" x="70.5" y="-25" font-family="Times,serif" font-size="14.00" fill="#000000">and other edges </text>
<text text-anchor="middle" x="70.5" y="-8.2" font-family="Times,serif" font-size="14.00" fill="#000000">twice</text>
<!-- 2 -->
<g id="node1" class="node">
<title>2</title>
<ellipse fill="#ffd700" stroke="#ffd700" cx="42" cy="-286.8" rx="27" ry="18"/>
<text text-anchor="middle" x="42" y="-282.6" font-family="Times,serif" font-size="14.00" fill="#000000">2</text>
</g>
<!-- 3 -->
<g id="node3" class="node">
<title>3</title>
<ellipse fill="#ffd700" stroke="#ffd700" cx="27" cy="-198" rx="27" ry="18"/>
<text text-anchor="middle" x="27" y="-193.8" font-family="Times,serif" font-size="14.00" fill="#000000">3</text>
</g>
<!-- 2&#45;&gt;3 -->
<g id="edge2" class="edge">
<title>2&#45;&gt;3</title>
<path fill="none" stroke="#ff0000" d="M38.9645,-268.83C36.3621,-253.4236 32.6321,-231.342 30.031,-215.9433"/>
<text text-anchor="middle" x="39.5" y="-238.2" font-family="Times,serif" font-size="14.00" fill="#000000">8</text>
</g>
<!-- 4 -->
<g id="node4" class="node">
<title>4</title>
<ellipse fill="none" stroke="#000000" cx="99" cy="-198" rx="27" ry="18"/>
<text text-anchor="middle" x="99" y="-193.8" font-family="Times,serif" font-size="14.00" fill="#000000">4</text>
</g>
<!-- 2&#45;&gt;4 -->
<g id="edge4" class="edge">
<title>2&#45;&gt;4</title>
<path fill="none" stroke="#000000" d="M52.7213,-270.0974C62.912,-254.2214 78.152,-230.4789 88.3268,-214.6277"/>
<text text-anchor="middle" x="79.5" y="-238.2" font-family="Times,serif" font-size="14.00" fill="#000000">3</text>
</g>
<!-- 1 -->
<g id="node2" class="node">
<title>1</title>
<ellipse fill="#ffd700" stroke="#ffd700" cx="88" cy="-375.6" rx="27" ry="18"/>
<text text-anchor="middle" x="88" y="-371.4" font-family="Times,serif" font-size="14.00" fill="#000000">1</text>
</g>
<!-- 1&#45;&gt;2 -->
<g id="edge1" class="edge">
<title>1&#45;&gt;2</title>
<path fill="none" stroke="#ff0000" d="M79.1307,-358.4785C70.9852,-342.754 58.979,-319.5768 50.842,-303.869"/>
<text text-anchor="middle" x="73.5" y="-327" font-family="Times,serif" font-size="14.00" fill="#000000">5</text>
</g>
<!-- 6 -->
<g id="node6" class="node">
<title>6</title>
<ellipse fill="none" stroke="#000000" cx="114" cy="-286.8" rx="27" ry="18"/>
<text text-anchor="middle" x="114" y="-282.6" font-family="Times,serif" font-size="14.00" fill="#000000">6</text>
</g>
<!-- 1&#45;&gt;6 -->
<g id="edge3" class="edge">
<title>1&#45;&gt;6</title>
<path fill="none" stroke="#000000" d="M93.2615,-357.63C97.7724,-342.2236 104.2377,-320.142 108.7463,-304.7433"/>
<text text-anchor="middle" x="107.5" y="-327" font-family="Times,serif" font-size="14.00" fill="#000000">7</text>
</g>
<!-- 5 -->
<g id="node5" class="node">
<title>5</title>
<ellipse fill="none" stroke="#000000" cx="99" cy="-109.2" rx="27" ry="18"/>
<text text-anchor="middle" x="99" y="-105" font-family="Times,serif" font-size="14.00" fill="#000000">5</text>
</g>
<!-- 4&#45;&gt;5 -->
<g id="edge5" class="edge">
<title>4&#45;&gt;5</title>
<path fill="none" stroke="#000000" d="M99,-179.6006C99,-164.2587 99,-142.522 99,-127.272"/>
<text text-anchor="middle" x="102.5" y="-149.4" font-family="Times,serif" font-size="14.00" fill="#000000">2</text>
</g>
</g>
</svg>
