<?xml version="1.0" encoding="UTF-8" standalone="no"?>
<!DOCTYPE svg PUBLIC "-//W3C//DTD SVG 1.1//EN"
 "http://www.w3.org/Graphics/SVG/1.1/DTD/svg11.dtd">
<!-- Generated by graphviz version 2.40.1 (20161225.0304)
 -->
<!-- Title: D Pages: 1 -->
<svg width="115pt" height="44pt"
 viewBox="0.00 0.00 115.00 44.00" xmlns="http://www.w3.org/2000/svg" xmlns:xlink="http://www.w3.org/1999/xlink">
<g id="graph0" class="graph" transform="scale(1 1) rotate(0) translate(4 40)">
<title>D</title>
<polygon fill="#ffffff" stroke="transparent" points="-4,4 -4,-40 111,-40 111,4 -4,4"/>
<!-- some_node -->
<g id="node1" class="node">
<title>some_node</title>
<polygon fill="#f0e3ff" stroke="transparent" points="8.5,-7 8.5,-29 21.5,-29 21.5,-7 8.5,-7"/>
<polygon fill="none" stroke="#000000" points="8.5,-7 8.5,-29 21.5,-29 21.5,-7 8.5,-7"/>
<text text-anchor="start" x="11.5" y="-13.4" font-family="Times,serif" font-size="14.00" fill="#000000">1</text>
<polygon fill="#f0e3ff" stroke="transparent" points="21.5,-7 21.5,-29 34.5,-29 34.5,-7 21.5,-7"/>
<polygon fill="none" stroke="#000000" points="21.5,-7 21.5,-29 34.5,-29 34.5,-7 21.5,-7"/>
<text text-anchor="start" x="24.5" y="-13.4" font-family="Times,serif" font-size="14.00" fill="#000000">5</text>
<polygon fill="#f0e3ff" stroke="transparent" points="34.5,-7 34.5,-29 47.5,-29 47.5,-7 34.5,-7"/>
<polygon fill="none" stroke="#000000" points="34.5,-7 34.5,-29 47.5,-29 47.5,-7 34.5,-7"/>
<text text-anchor="start" x="37.5" y="-13.4" font-family="Times,serif" font-size="14.00" fill="#000000">2</text>
<polygon fill="#f0e3ff" stroke="transparent" points="47.5,-7 47.5,-29 60.5,-29 60.5,-7 47.5,-7"/>
<polygon fill="none" stroke="#000000" points="47.5,-7 47.5,-29 60.5,-29 60.5,-7 47.5,-7"/>
<text text-anchor="start" x="50.5" y="-13.4" font-family="Times,serif" font-size="14.00" fill="#000000">4</text>
<polygon fill="#f0e3ff" stroke="transparent" points="60.5,-7 60.5,-29 73.5,-29 73.5,-7 60.5,-7"/>
<polygon fill="none" stroke="#000000" points="60.5,-7 60.5,-29 73.5,-29 73.5,-7 60.5,-7"/>
<text text-anchor="start" x="63.5" y="-13.4" font-family="Times,serif" font-size="14.00" fill="#000000">3</text>
<polygon fill="#f0e3ff" stroke="transparent" points="73.5,-7 73.5,-29 86.5,-29 86.5,-7 73.5,-7"/>
<polygon fill="none" stroke="#000000" points="73.5,-7 73.5,-29 86.5,-29 86.5,-7 73.5,-7"/>
<text text-anchor="start" x="76.5" y="-13.4" font-family="Times,serif" font-size="14.00" fill="#000000">5</text>
<polygon fill="#f0e3ff" stroke="transparent" points="86.5,-7 86.5,-29 99.5,-29 99.5,-7 86.5,-7"/>
<polygon fill="none" stroke="#000000" points="86.5,-7 86.5,-29 99.5,-29 99.5,-7 86.5,-7"/>
<text text-anchor="start" x="89.5" y="-13.4" font-family="Times,serif" font-size="14.00" fill="#000000">4</text>
</g>
</g>
</svg>
