<?xml version="1.0" encoding="UTF-8" standalone="no"?>
<!DOCTYPE svg PUBLIC "-//W3C//DTD SVG 1.1//EN"
 "http://www.w3.org/Graphics/SVG/1.1/DTD/svg11.dtd">
<!-- Generated by graphviz version 2.40.1 (20161225.0304)
 -->
<!-- Title: D Pages: 1 -->
<svg width="164pt" height="102pt"
 viewBox="0.00 0.00 164.00 101.60" xmlns="http://www.w3.org/2000/svg" xmlns:xlink="http://www.w3.org/1999/xlink">
<g id="graph0" class="graph" transform="scale(1 1) rotate(0) translate(4 97.6)">
<title>D</title>
<polygon fill="#ffffff" stroke="transparent" points="-4,4 -4,-97.6 160,-97.6 160,4 -4,4"/>
<text text-anchor="middle" x="78" y="-25" font-family="Times,serif" font-size="14.00" fill="#000000">yellow is max </text>
<text text-anchor="middle" x="78" y="-8.2" font-family="Times,serif" font-size="14.00" fill="#000000">length subsequence</text>
<!-- some_node -->
<g id="node1" class="node">
<title>some_node</title>
<polygon fill="#ffff00" stroke="transparent" points="8,-64.6 8,-86.6 28,-86.6 28,-64.6 8,-64.6"/>
<polygon fill="none" stroke="#000000" points="8,-64.6 8,-86.6 28,-86.6 28,-64.6 8,-64.6"/>
<text text-anchor="start" x="11" y="-71" font-family="Times,serif" font-size="14.00" fill="#000000"> 1 </text>
<polygon fill="#ffc0cb" stroke="transparent" points="28,-64.6 28,-86.6 48,-86.6 48,-64.6 28,-64.6"/>
<polygon fill="none" stroke="#000000" points="28,-64.6 28,-86.6 48,-86.6 48,-64.6 28,-64.6"/>
<text text-anchor="start" x="31" y="-71" font-family="Times,serif" font-size="14.00" fill="#000000"> 5 </text>
<polygon fill="#ffff00" stroke="transparent" points="48,-64.6 48,-86.6 68,-86.6 68,-64.6 48,-64.6"/>
<polygon fill="none" stroke="#000000" points="48,-64.6 48,-86.6 68,-86.6 68,-64.6 48,-64.6"/>
<text text-anchor="start" x="51" y="-71" font-family="Times,serif" font-size="14.00" fill="#000000"> 2 </text>
<polygon fill="#ffc0cb" stroke="transparent" points="68,-64.6 68,-86.6 88,-86.6 88,-64.6 68,-64.6"/>
<polygon fill="none" stroke="#000000" points="68,-64.6 68,-86.6 88,-86.6 88,-64.6 68,-64.6"/>
<text text-anchor="start" x="71" y="-71" font-family="Times,serif" font-size="14.00" fill="#000000"> 4 </text>
<polygon fill="#ffff00" stroke="transparent" points="88,-64.6 88,-86.6 108,-86.6 108,-64.6 88,-64.6"/>
<polygon fill="none" stroke="#000000" points="88,-64.6 88,-86.6 108,-86.6 108,-64.6 88,-64.6"/>
<text text-anchor="start" x="91" y="-71" font-family="Times,serif" font-size="14.00" fill="#000000"> 3 </text>
<polygon fill="#ffc0cb" stroke="transparent" points="108,-64.6 108,-86.6 128,-86.6 128,-64.6 108,-64.6"/>
<polygon fill="none" stroke="#000000" points="108,-64.6 108,-86.6 128,-86.6 128,-64.6 108,-64.6"/>
<text text-anchor="start" x="111" y="-71" font-family="Times,serif" font-size="14.00" fill="#000000"> 5 </text>
<polygon fill="#ffff00" stroke="transparent" points="128,-64.6 128,-86.6 148,-86.6 148,-64.6 128,-64.6"/>
<polygon fill="none" stroke="#000000" points="128,-64.6 128,-86.6 148,-86.6 148,-64.6 128,-64.6"/>
<text text-anchor="start" x="131" y="-71" font-family="Times,serif" font-size="14.00" fill="#000000"> 4 </text>
</g>
</g>
</svg>
