<?xml version="1.0" encoding="UTF-8" standalone="no"?>
<!DOCTYPE svg PUBLIC "-//W3C//DTD SVG 1.1//EN"
 "http://www.w3.org/Graphics/SVG/1.1/DTD/svg11.dtd">
<!-- Generated by graphviz version 2.40.1 (20161225.0304)
 -->
<!-- Title: %0 Pages: 1 -->
<svg width="528pt" height="250pt"
 viewBox="0.00 0.00 528.00 249.60" xmlns="http://www.w3.org/2000/svg" xmlns:xlink="http://www.w3.org/1999/xlink">
<g id="graph0" class="graph" transform="scale(1 1) rotate(0) translate(4 245.6)">
<title>%0</title>
<polygon fill="#ffffff" stroke="transparent" points="-4,4 -4,-245.6 524,-245.6 524,4 -4,4"/>
<text text-anchor="middle" x="260" y="-8.2" font-family="Times,serif" font-size="14.00" fill="#000000">answer=9+13=22</text>
<g id="clust1" class="cluster">
<title>cluster_gc_1</title>
<polygon fill="none" stroke="#000000" points="8,-48.8 8,-197.6 324,-197.6 324,-48.8 8,-48.8"/>
<text text-anchor="middle" x="166" y="-181" font-family="Times,serif" font-size="14.00" fill="#000000">Subtree&#45;1 , sum of values=9</text>
</g>
<g id="clust2" class="cluster">
<title>cluster_gc_2</title>
<polygon fill="none" stroke="#000000" points="332,-120.8 332,-197.6 512,-197.6 512,-120.8 332,-120.8"/>
<text text-anchor="middle" x="422" y="-181" font-family="Times,serif" font-size="14.00" fill="#000000">Subtree&#45;2 , sum of values=13</text>
</g>
<!-- 2 -->
<g id="node1" class="node">
<title>2</title>
<ellipse fill="#ffb6c1" stroke="#ffb6c1" cx="221" cy="-146.8" rx="42.5339" ry="18"/>
<text text-anchor="middle" x="221" y="-142.6" font-family="Times,serif" font-size="14.00" fill="#000000">2, val=2</text>
</g>
<!-- 3 -->
<g id="node3" class="node">
<title>3</title>
<ellipse fill="#ffb6c1" stroke="#ffb6c1" cx="62" cy="-74.8" rx="45.9623" ry="18"/>
<text text-anchor="middle" x="62" y="-70.6" font-family="Times,serif" font-size="14.00" fill="#000000">3, val=&#45;5</text>
</g>
<!-- 2&#45;&gt;3 -->
<g id="edge2" class="edge">
<title>2&#45;&gt;3</title>
<path fill="none" stroke="#000000" d="M191.8369,-133.5941C163.5965,-120.806 120.96,-101.4989 92.3308,-88.5347"/>
</g>
<!-- 4 -->
<g id="node4" class="node">
<title>4</title>
<ellipse fill="#ffb6c1" stroke="#ffb6c1" cx="169" cy="-74.8" rx="42.5339" ry="18"/>
<text text-anchor="middle" x="169" y="-70.6" font-family="Times,serif" font-size="14.00" fill="#000000">4, val=4</text>
</g>
<!-- 2&#45;&gt;4 -->
<g id="edge4" class="edge">
<title>2&#45;&gt;4</title>
<path fill="none" stroke="#000000" d="M208.4123,-129.3708C200.2366,-118.0506 189.6244,-103.3568 181.4718,-92.0687"/>
</g>
<!-- 5 -->
<g id="node5" class="node">
<title>5</title>
<ellipse fill="#ffb6c1" stroke="#ffb6c1" cx="273" cy="-74.8" rx="42.5339" ry="18"/>
<text text-anchor="middle" x="273" y="-70.6" font-family="Times,serif" font-size="14.00" fill="#000000">5, val=8</text>
</g>
<!-- 2&#45;&gt;5 -->
<g id="edge5" class="edge">
<title>2&#45;&gt;5</title>
<path fill="none" stroke="#000000" d="M233.5877,-129.3708C241.7634,-118.0506 252.3756,-103.3568 260.5282,-92.0687"/>
</g>
<!-- 1 -->
<g id="node2" class="node">
<title>1</title>
<ellipse fill="none" stroke="#000000" cx="330" cy="-223.6" rx="42.5339" ry="18"/>
<text text-anchor="middle" x="330" y="-219.4" font-family="Times,serif" font-size="14.00" fill="#000000">1, val=3</text>
</g>
<!-- 1&#45;&gt;2 -->
<g id="edge1" class="edge">
<title>1&#45;&gt;2</title>
<path fill="none" stroke="#000000" d="M307.9422,-208.0584C289.0312,-194.7339 261.9265,-175.6363 243.025,-162.3185"/>
</g>
<!-- 6 -->
<g id="node6" class="node">
<title>6</title>
<ellipse fill="#d3d3d3" stroke="#000000" cx="388" cy="-146.8" rx="47.6898" ry="18"/>
<text text-anchor="middle" x="388" y="-142.6" font-family="Times,serif" font-size="14.00" fill="#000000">6, val=13</text>
</g>
<!-- 1&#45;&gt;6 -->
<g id="edge3" class="edge">
<title>1&#45;&gt;6</title>
<path fill="none" stroke="#000000" d="M343.1611,-206.1729C352.6531,-193.6041 365.4109,-176.7111 374.891,-164.1581"/>
</g>
</g>
</svg>
