<?xml version="1.0" encoding="UTF-8" standalone="no"?>
<!DOCTYPE svg PUBLIC "-//W3C//DTD SVG 1.1//EN"
 "http://www.w3.org/Graphics/SVG/1.1/DTD/svg11.dtd">
<!-- Generated by graphviz version 2.40.1 (20161225.0304)
 -->
<!-- Title: %0 Pages: 1 -->
<svg width="317pt" height="229pt"
 viewBox="0.00 0.00 316.58 228.80" xmlns="http://www.w3.org/2000/svg" xmlns:xlink="http://www.w3.org/1999/xlink">
<g id="graph0" class="graph" transform="scale(1 1) rotate(0) translate(4 224.8)">
<title>%0</title>
<polygon fill="#ffffff" stroke="transparent" points="-4,4 -4,-224.8 312.5759,-224.8 312.5759,4 -4,4"/>
<text text-anchor="middle" x="154.288" y="-8.2" font-family="Times,serif" font-size="14.00" fill="#000000">given tree</text>
<!-- 2 -->
<g id="node1" class="node">
<title>2</title>
<ellipse fill="none" stroke="#000000" cx="152.9811" cy="-130.8" rx="42.5339" ry="18"/>
<text text-anchor="middle" x="152.9811" y="-126.6" font-family="Times,serif" font-size="14.00" fill="#000000">2, val=2</text>
</g>
<!-- 3 -->
<g id="node3" class="node">
<title>3</title>
<ellipse fill="none" stroke="#000000" cx="45.9811" cy="-58.8" rx="45.9623" ry="18"/>
<text text-anchor="middle" x="45.9811" y="-54.6" font-family="Times,serif" font-size="14.00" fill="#000000">3, val=&#45;5</text>
</g>
<!-- 2&#45;&gt;3 -->
<g id="edge2" class="edge">
<title>2&#45;&gt;3</title>
<path fill="none" stroke="#000000" d="M130.2892,-115.5307C112.3763,-103.4771 87.4736,-86.7201 69.3801,-74.5451"/>
</g>
<!-- 4 -->
<g id="node4" class="node">
<title>4</title>
<ellipse fill="none" stroke="#000000" cx="152.9811" cy="-58.8" rx="42.5339" ry="18"/>
<text text-anchor="middle" x="152.9811" y="-54.6" font-family="Times,serif" font-size="14.00" fill="#000000">4, val=4</text>
</g>
<!-- 2&#45;&gt;4 -->
<g id="edge4" class="edge">
<title>2&#45;&gt;4</title>
<path fill="none" stroke="#000000" d="M152.9811,-112.6314C152.9811,-101.8 152.9811,-88.0876 152.9811,-77.2133"/>
</g>
<!-- 5 -->
<g id="node5" class="node">
<title>5</title>
<ellipse fill="none" stroke="#000000" cx="256.9811" cy="-58.8" rx="42.5339" ry="18"/>
<text text-anchor="middle" x="256.9811" y="-54.6" font-family="Times,serif" font-size="14.00" fill="#000000">5, val=8</text>
</g>
<!-- 2&#45;&gt;5 -->
<g id="edge5" class="edge">
<title>2&#45;&gt;5</title>
<path fill="none" stroke="#000000" d="M175.2917,-115.3542C192.8391,-103.206 217.1696,-86.3618 234.7074,-74.2203"/>
</g>
<!-- 1 -->
<g id="node2" class="node">
<title>1</title>
<ellipse fill="none" stroke="#000000" cx="206.9811" cy="-202.8" rx="42.5339" ry="18"/>
<text text-anchor="middle" x="206.9811" y="-198.6" font-family="Times,serif" font-size="14.00" fill="#000000">1, val=3</text>
</g>
<!-- 1&#45;&gt;2 -->
<g id="edge1" class="edge">
<title>1&#45;&gt;2</title>
<path fill="none" stroke="#000000" d="M193.9092,-185.3708C185.4191,-174.0506 174.3987,-159.3568 165.9326,-148.0687"/>
</g>
<!-- 6 -->
<g id="node6" class="node">
<title>6</title>
<ellipse fill="none" stroke="#000000" cx="260.9811" cy="-130.8" rx="47.6898" ry="18"/>
<text text-anchor="middle" x="260.9811" y="-126.6" font-family="Times,serif" font-size="14.00" fill="#000000">6, val=13</text>
</g>
<!-- 1&#45;&gt;6 -->
<g id="edge3" class="edge">
<title>1&#45;&gt;6</title>
<path fill="none" stroke="#000000" d="M220.053,-185.3708C228.4807,-174.1339 239.4016,-159.5727 247.8424,-148.3182"/>
</g>
</g>
</svg>
