<?xml version="1.0" encoding="UTF-8" standalone="no"?>
<!DOCTYPE svg PUBLIC "-//W3C//DTD SVG 1.1//EN"
 "http://www.w3.org/Graphics/SVG/1.1/DTD/svg11.dtd">
<!-- Generated by graphviz version 2.40.1 (20161225.0304)
 -->
<!-- Title: %0 Pages: 1 -->
<svg width="380pt" height="322pt"
 viewBox="0.00 0.00 379.71 321.60" xmlns="http://www.w3.org/2000/svg" xmlns:xlink="http://www.w3.org/1999/xlink">
<g id="graph0" class="graph" transform="scale(1 1) rotate(0) translate(4 317.6)">
<title>%0</title>
<polygon fill="#ffffff" stroke="transparent" points="-4,4 -4,-317.6 375.712,-317.6 375.712,4 -4,4"/>
<text text-anchor="middle" x="185.856" y="-8.2" font-family="Times,serif" font-size="14.00" fill="#000000">&#45;&#45;&#45;&#45;&#45;&#45; In this graph impossible to have 2 disjoint subtrees &#160;&#45;&#45;&#45;&#45;&#45;&#45;&#45;</text>
<g id="clust1" class="cluster">
<title>cluster_gc_1</title>
<polygon fill="none" stroke="#000000" points="81.856,-48.8 81.856,-269.6 289.856,-269.6 289.856,-48.8 81.856,-48.8"/>
<text text-anchor="middle" x="185.856" y="-253" font-family="Times,serif" font-size="14.00" fill="#000000">Only 1 subtree , sum of values=13</text>
</g>
<!-- 2 -->
<g id="node1" class="node">
<title>2</title>
<ellipse fill="#7fff00" stroke="#7fff00" cx="185.856" cy="-218.8" rx="42.5339" ry="18"/>
<text text-anchor="middle" x="185.856" y="-214.6" font-family="Times,serif" font-size="14.00" fill="#000000">2, val=2</text>
</g>
<!-- 3 -->
<g id="node3" class="node">
<title>3</title>
<ellipse fill="#7fff00" stroke="#7fff00" cx="185.856" cy="-146.8" rx="42.5339" ry="18"/>
<text text-anchor="middle" x="185.856" y="-142.6" font-family="Times,serif" font-size="14.00" fill="#000000">3, val=7</text>
</g>
<!-- 2&#45;&gt;3 -->
<g id="edge2" class="edge">
<title>2&#45;&gt;3</title>
<path fill="none" stroke="#000000" d="M185.856,-200.6314C185.856,-189.8 185.856,-176.0876 185.856,-165.2133"/>
</g>
<!-- 1 -->
<g id="node2" class="node">
<title>1</title>
<ellipse fill="none" stroke="#000000" cx="185.856" cy="-295.6" rx="42.5339" ry="18"/>
<text text-anchor="middle" x="185.856" y="-291.4" font-family="Times,serif" font-size="14.00" fill="#000000">1, val=3</text>
</g>
<!-- 1&#45;&gt;2 -->
<g id="edge1" class="edge">
<title>1&#45;&gt;2</title>
<path fill="none" stroke="#000000" d="M185.856,-277.3995C185.856,-265.1569 185.856,-249.0851 185.856,-236.8699"/>
</g>
<!-- 4 -->
<g id="node4" class="node">
<title>4</title>
<ellipse fill="#7fff00" stroke="#7fff00" cx="185.856" cy="-74.8" rx="42.5339" ry="18"/>
<text text-anchor="middle" x="185.856" y="-70.6" font-family="Times,serif" font-size="14.00" fill="#000000">4, val=4</text>
</g>
<!-- 3&#45;&gt;4 -->
<g id="edge3" class="edge">
<title>3&#45;&gt;4</title>
<path fill="none" stroke="#000000" d="M185.856,-128.6314C185.856,-117.8 185.856,-104.0876 185.856,-93.2133"/>
</g>
</g>
</svg>
