<?xml version="1.0" encoding="UTF-8" standalone="no"?>
<!DOCTYPE svg PUBLIC "-//W3C//DTD SVG 1.1//EN"
 "http://www.w3.org/Graphics/SVG/1.1/DTD/svg11.dtd">
<!-- Generated by graphviz version 2.40.1 (20161225.0304)
 -->
<!-- Title: D Pages: 1 -->
<svg width="164pt" height="152pt"
 viewBox="0.00 0.00 164.00 152.00" xmlns="http://www.w3.org/2000/svg" xmlns:xlink="http://www.w3.org/1999/xlink">
<g id="graph0" class="graph" transform="scale(1 1) rotate(0) translate(4 148)">
<title>D</title>
<polygon fill="#ffffff" stroke="transparent" points="-4,4 -4,-148 160,-148 160,4 -4,4"/>
<text text-anchor="middle" x="78" y="-75.4" font-family="Times,serif" font-size="14.00" fill="#000000">M[1]=0</text>
<text text-anchor="middle" x="78" y="-58.6" font-family="Times,serif" font-size="14.00" fill="#000000">M[2]=0</text>
<text text-anchor="middle" x="78" y="-41.8" font-family="Times,serif" font-size="14.00" fill="#000000">M[3]=0</text>
<text text-anchor="middle" x="78" y="-25" font-family="Times,serif" font-size="14.00" fill="#000000">M[4]=0</text>
<text text-anchor="middle" x="78" y="-8.2" font-family="Times,serif" font-size="14.00" fill="#000000">M[5]=0</text>
<!-- some_node -->
<g id="node1" class="node">
<title>some_node</title>
<polygon fill="#f0e3ff" stroke="transparent" points="8,-115 8,-137 28,-137 28,-115 8,-115"/>
<polygon fill="none" stroke="#000000" points="8,-115 8,-137 28,-137 28,-115 8,-115"/>
<text text-anchor="start" x="11" y="-121.4" font-family="Times,serif" font-size="14.00" fill="#000000"> 1 </text>
<polygon fill="#f0e3ff" stroke="transparent" points="28,-115 28,-137 48,-137 48,-115 28,-115"/>
<polygon fill="none" stroke="#000000" points="28,-115 28,-137 48,-137 48,-115 28,-115"/>
<text text-anchor="start" x="31" y="-121.4" font-family="Times,serif" font-size="14.00" fill="#000000"> 5 </text>
<polygon fill="#f0e3ff" stroke="transparent" points="48,-115 48,-137 68,-137 68,-115 48,-115"/>
<polygon fill="none" stroke="#000000" points="48,-115 48,-137 68,-137 68,-115 48,-115"/>
<text text-anchor="start" x="51" y="-121.4" font-family="Times,serif" font-size="14.00" fill="#000000"> 2 </text>
<polygon fill="#f0e3ff" stroke="transparent" points="68,-115 68,-137 88,-137 88,-115 68,-115"/>
<polygon fill="none" stroke="#000000" points="68,-115 68,-137 88,-137 88,-115 68,-115"/>
<text text-anchor="start" x="71" y="-121.4" font-family="Times,serif" font-size="14.00" fill="#000000"> 4 </text>
<polygon fill="#f0e3ff" stroke="transparent" points="88,-115 88,-137 108,-137 108,-115 88,-115"/>
<polygon fill="none" stroke="#000000" points="88,-115 88,-137 108,-137 108,-115 88,-115"/>
<text text-anchor="start" x="91" y="-121.4" font-family="Times,serif" font-size="14.00" fill="#000000"> 3 </text>
<polygon fill="#f0e3ff" stroke="transparent" points="108,-115 108,-137 128,-137 128,-115 108,-115"/>
<polygon fill="none" stroke="#000000" points="108,-115 108,-137 128,-137 128,-115 108,-115"/>
<text text-anchor="start" x="111" y="-121.4" font-family="Times,serif" font-size="14.00" fill="#000000"> 5 </text>
<polygon fill="#f0e3ff" stroke="transparent" points="128,-115 128,-137 148,-137 148,-115 128,-115"/>
<polygon fill="none" stroke="#000000" points="128,-115 128,-137 148,-137 148,-115 128,-115"/>
<text text-anchor="start" x="131" y="-121.4" font-family="Times,serif" font-size="14.00" fill="#000000"> 4 </text>
</g>
</g>
</svg>
