<?xml version="1.0" encoding="UTF-8" standalone="no"?>
<!DOCTYPE svg PUBLIC "-//W3C//DTD SVG 1.1//EN"
 "http://www.w3.org/Graphics/SVG/1.1/DTD/svg11.dtd">
<!-- Generated by graphviz version 2.40.1 (20161225.0304)
 -->
<!-- Title: D Pages: 1 -->
<svg width="111pt" height="44pt"
 viewBox="0.00 0.00 111.00 44.00" xmlns="http://www.w3.org/2000/svg" xmlns:xlink="http://www.w3.org/1999/xlink">
<g id="graph0" class="graph" transform="scale(1 1) rotate(0) translate(4 40)">
<title>D</title>
<polygon fill="#ffffff" stroke="transparent" points="-4,4 -4,-40 107,-40 107,4 -4,4"/>
<!-- some_node -->
<g id="node1" class="node">
<title>some_node</title>
<polygon fill="#f0e3ff" stroke="transparent" points="8.5,-7 8.5,-29 20.5,-29 20.5,-7 8.5,-7"/>
<polygon fill="none" stroke="#000000" points="8.5,-7 8.5,-29 20.5,-29 20.5,-7 8.5,-7"/>
<text text-anchor="start" x="11.3927" y="-13.4" font-family="Times,serif" font-size="14.00" fill="#000000">a</text>
<polygon fill="#f0e3ff" stroke="transparent" points="20.5,-7 20.5,-29 32.5,-29 32.5,-7 20.5,-7"/>
<polygon fill="none" stroke="#000000" points="20.5,-7 20.5,-29 32.5,-29 32.5,-7 20.5,-7"/>
<text text-anchor="start" x="23.3927" y="-13.4" font-family="Times,serif" font-size="14.00" fill="#000000">a</text>
<polygon fill="#f0e3ff" stroke="transparent" points="32.5,-7 32.5,-29 45.5,-29 45.5,-7 32.5,-7"/>
<polygon fill="none" stroke="#000000" points="32.5,-7 32.5,-29 45.5,-29 45.5,-7 32.5,-7"/>
<text text-anchor="start" x="35.5" y="-13.4" font-family="Times,serif" font-size="14.00" fill="#000000">b</text>
<polygon fill="#f0e3ff" stroke="transparent" points="45.5,-7 45.5,-29 57.5,-29 57.5,-7 45.5,-7"/>
<polygon fill="none" stroke="#000000" points="45.5,-7 45.5,-29 57.5,-29 57.5,-7 45.5,-7"/>
<text text-anchor="start" x="48.3927" y="-13.4" font-family="Times,serif" font-size="14.00" fill="#000000">a</text>
<polygon fill="#f0e3ff" stroke="transparent" points="57.5,-7 57.5,-29 70.5,-29 70.5,-7 57.5,-7"/>
<polygon fill="none" stroke="#000000" points="57.5,-7 57.5,-29 70.5,-29 70.5,-7 57.5,-7"/>
<text text-anchor="start" x="60.5" y="-13.4" font-family="Times,serif" font-size="14.00" fill="#000000">b</text>
<polygon fill="#f0e3ff" stroke="transparent" points="70.5,-7 70.5,-29 83.5,-29 83.5,-7 70.5,-7"/>
<polygon fill="none" stroke="#000000" points="70.5,-7 70.5,-29 83.5,-29 83.5,-7 70.5,-7"/>
<text text-anchor="start" x="73.5" y="-13.4" font-family="Times,serif" font-size="14.00" fill="#000000">b</text>
<polygon fill="#f0e3ff" stroke="transparent" points="83.5,-7 83.5,-29 95.5,-29 95.5,-7 83.5,-7"/>
<polygon fill="none" stroke="#000000" points="83.5,-7 83.5,-29 95.5,-29 95.5,-7 83.5,-7"/>
<text text-anchor="start" x="86.3927" y="-13.4" font-family="Times,serif" font-size="14.00" fill="#000000">a</text>
</g>
</g>
</svg>
