<?xml version="1.0" encoding="UTF-8" standalone="no"?>
<!DOCTYPE svg PUBLIC "-//W3C//DTD SVG 1.1//EN"
 "http://www.w3.org/Graphics/SVG/1.1/DTD/svg11.dtd">
<!-- Generated by graphviz version 2.40.1 (20161225.0304)
 -->
<!-- Title: D Pages: 1 -->
<svg width="111pt" height="86pt"
 viewBox="0.00 0.00 111.00 85.60" xmlns="http://www.w3.org/2000/svg" xmlns:xlink="http://www.w3.org/1999/xlink">
<g id="graph0" class="graph" transform="scale(1 1) rotate(0) translate(4 81.6)">
<title>D</title>
<polygon fill="#ffffff" stroke="transparent" points="-4,4 -4,-81.6 107,-81.6 107,4 -4,4"/>
<text text-anchor="middle" x="51.5" y="-25" font-family="Times,serif" font-size="14.00" fill="#000000">count=3</text>
<text text-anchor="middle" x="51.5" y="-8.2" font-family="Times,serif" font-size="14.00" fill="#000000">pairs=2</text>
<!-- some_node -->
<g id="node1" class="node">
<title>some_node</title>
<polygon fill="#ffc0cb" stroke="transparent" points="8.5,-48.6 8.5,-70.6 20.5,-70.6 20.5,-48.6 8.5,-48.6"/>
<polygon fill="none" stroke="#000000" points="8.5,-48.6 8.5,-70.6 20.5,-70.6 20.5,-48.6 8.5,-48.6"/>
<text text-anchor="start" x="11.3927" y="-55" font-family="Times,serif" font-size="14.00" fill="#000000">a</text>
<polygon fill="#ffc0cb" stroke="transparent" points="20.5,-48.6 20.5,-70.6 32.5,-70.6 32.5,-48.6 20.5,-48.6"/>
<polygon fill="none" stroke="#000000" points="20.5,-48.6 20.5,-70.6 32.5,-70.6 32.5,-48.6 20.5,-48.6"/>
<text text-anchor="start" x="23.3927" y="-55" font-family="Times,serif" font-size="14.00" fill="#000000">a</text>
<polygon fill="#ffff00" stroke="transparent" points="32.5,-48.6 32.5,-70.6 45.5,-70.6 45.5,-48.6 32.5,-48.6"/>
<polygon fill="none" stroke="#000000" points="32.5,-48.6 32.5,-70.6 45.5,-70.6 45.5,-48.6 32.5,-48.6"/>
<text text-anchor="start" x="35.5" y="-55" font-family="Times,serif" font-size="14.00" fill="#000000">b</text>
<polygon fill="#ffc0cb" stroke="transparent" points="45.5,-48.6 45.5,-70.6 57.5,-70.6 57.5,-48.6 45.5,-48.6"/>
<polygon fill="none" stroke="#000000" points="45.5,-48.6 45.5,-70.6 57.5,-70.6 57.5,-48.6 45.5,-48.6"/>
<text text-anchor="start" x="48.3927" y="-55" font-family="Times,serif" font-size="14.00" fill="#000000">a</text>
<polygon fill="#f0e3ff" stroke="transparent" points="57.5,-48.6 57.5,-70.6 70.5,-70.6 70.5,-48.6 57.5,-48.6"/>
<polygon fill="none" stroke="#000000" points="57.5,-48.6 57.5,-70.6 70.5,-70.6 70.5,-48.6 57.5,-48.6"/>
<text text-anchor="start" x="60.5" y="-55" font-family="Times,serif" font-size="14.00" fill="#000000">b</text>
<polygon fill="#f0e3ff" stroke="transparent" points="70.5,-48.6 70.5,-70.6 83.5,-70.6 83.5,-48.6 70.5,-48.6"/>
<polygon fill="none" stroke="#000000" points="70.5,-48.6 70.5,-70.6 83.5,-70.6 83.5,-48.6 70.5,-48.6"/>
<text text-anchor="start" x="73.5" y="-55" font-family="Times,serif" font-size="14.00" fill="#000000">b</text>
<polygon fill="#f0e3ff" stroke="transparent" points="83.5,-48.6 83.5,-70.6 95.5,-70.6 95.5,-48.6 83.5,-48.6"/>
<polygon fill="none" stroke="#000000" points="83.5,-48.6 83.5,-70.6 95.5,-70.6 95.5,-48.6 83.5,-48.6"/>
<text text-anchor="start" x="86.3927" y="-55" font-family="Times,serif" font-size="14.00" fill="#000000">a</text>
</g>
</g>
</svg>
