<?xml version="1.0" encoding="UTF-8" standalone="no"?>
<!DOCTYPE svg PUBLIC "-//W3C//DTD SVG 1.1//EN"
 "http://www.w3.org/Graphics/SVG/1.1/DTD/svg11.dtd">
<!-- Generated by graphviz version 2.40.1 (20161225.0304)
 -->
<!-- Title: D Pages: 1 -->
<svg width="164pt" height="135pt"
 viewBox="0.00 0.00 164.00 135.20" xmlns="http://www.w3.org/2000/svg" xmlns:xlink="http://www.w3.org/1999/xlink">
<g id="graph0" class="graph" transform="scale(1 1) rotate(0) translate(4 131.2)">
<title>D</title>
<polygon fill="#ffffff" stroke="transparent" points="-4,4 -4,-131.2 160,-131.2 160,4 -4,4"/>
<text text-anchor="middle" x="78" y="-58.6" font-family="Times,serif" font-size="14.00" fill="#000000">max value</text>
<text text-anchor="middle" x="78" y="-41.8" font-family="Times,serif" font-size="14.00" fill="#000000"> binary representation</text>
<text text-anchor="middle" x="78" y="-25" font-family="Times,serif" font-size="14.00" fill="#000000">all bits are 1 from </text>
<text text-anchor="middle" x="78" y="-8.2" font-family="Times,serif" font-size="14.00" fill="#000000">the leftmost different bit</text>
<!-- some_node -->
<g id="node1" class="node">
<title>some_node</title>
<polygon fill="#f0e3ff" stroke="transparent" points="8,-98.2 8,-120.2 28,-120.2 28,-98.2 8,-98.2"/>
<polygon fill="none" stroke="#000000" points="8,-98.2 8,-120.2 28,-120.2 28,-98.2 8,-98.2"/>
<text text-anchor="start" x="11" y="-104.6" font-family="Times,serif" font-size="14.00" fill="#000000"> 1 </text>
<polygon fill="#f0e3ff" stroke="transparent" points="28,-98.2 28,-120.2 48,-120.2 48,-98.2 28,-98.2"/>
<polygon fill="none" stroke="#000000" points="28,-98.2 28,-120.2 48,-120.2 48,-98.2 28,-98.2"/>
<text text-anchor="start" x="31" y="-104.6" font-family="Times,serif" font-size="14.00" fill="#000000"> 1 </text>
<polygon fill="#f0e3ff" stroke="transparent" points="48,-98.2 48,-120.2 68,-120.2 68,-98.2 48,-98.2"/>
<polygon fill="none" stroke="#000000" points="48,-98.2 48,-120.2 68,-120.2 68,-98.2 48,-98.2"/>
<text text-anchor="start" x="51" y="-104.6" font-family="Times,serif" font-size="14.00" fill="#000000"> 1 </text>
<polygon fill="#f0e3ff" stroke="transparent" points="68,-98.2 68,-120.2 88,-120.2 88,-98.2 68,-98.2"/>
<polygon fill="none" stroke="#000000" points="68,-98.2 68,-120.2 88,-120.2 88,-98.2 68,-98.2"/>
<text text-anchor="start" x="71" y="-104.6" font-family="Times,serif" font-size="14.00" fill="#000000"> 1 </text>
<polygon fill="#f0e3ff" stroke="transparent" points="88,-98.2 88,-120.2 108,-120.2 108,-98.2 88,-98.2"/>
<polygon fill="none" stroke="#000000" points="88,-98.2 88,-120.2 108,-120.2 108,-98.2 88,-98.2"/>
<text text-anchor="start" x="91" y="-104.6" font-family="Times,serif" font-size="14.00" fill="#000000"> 1 </text>
<polygon fill="#f0e3ff" stroke="transparent" points="108,-98.2 108,-120.2 128,-120.2 128,-98.2 108,-98.2"/>
<polygon fill="none" stroke="#000000" points="108,-98.2 108,-120.2 128,-120.2 128,-98.2 108,-98.2"/>
<text text-anchor="start" x="111" y="-104.6" font-family="Times,serif" font-size="14.00" fill="#000000"> 1 </text>
<polygon fill="#f0e3ff" stroke="transparent" points="128,-98.2 128,-120.2 148,-120.2 148,-98.2 128,-98.2"/>
<polygon fill="none" stroke="#000000" points="128,-98.2 128,-120.2 148,-120.2 148,-98.2 128,-98.2"/>
<text text-anchor="start" x="131" y="-104.6" font-family="Times,serif" font-size="14.00" fill="#000000"> 1 </text>
</g>
</g>
</svg>
