<?xml version="1.0" encoding="UTF-8" standalone="no"?>
<!DOCTYPE svg PUBLIC "-//W3C//DTD SVG 1.1//EN"
 "http://www.w3.org/Graphics/SVG/1.1/DTD/svg11.dtd">
<!-- Generated by graphviz version 2.40.1 (20161225.0304)
 -->
<!-- Title: %0 Pages: 1 -->
<svg width="94pt" height="335pt"
 viewBox="0.00 0.00 94.00 335.20" xmlns="http://www.w3.org/2000/svg" xmlns:xlink="http://www.w3.org/1999/xlink">
<g id="graph0" class="graph" transform="scale(1 1) rotate(0) translate(4 331.2)">
<title>%0</title>
<polygon fill="#ffffff" stroke="transparent" points="-4,4 -4,-331.2 90,-331.2 90,4 -4,4"/>
<text text-anchor="middle" x="43" y="-8.2" font-family="Times,serif" font-size="14.00" fill="#000000">2&#45;&gt;3&#45;&gt;1&#45;&gt;4</text>
<!-- 2 -->
<g id="node1" class="node">
<title>2</title>
<ellipse fill="#ffb6c1" stroke="#ffb6c1" cx="59" cy="-309.2" rx="27" ry="18"/>
<text text-anchor="middle" x="59" y="-305" font-family="Times,serif" font-size="14.00" fill="#000000">2</text>
</g>
<!-- 3 -->
<g id="node3" class="node">
<title>3</title>
<ellipse fill="#ffb6c1" stroke="#ffb6c1" cx="27" cy="-220.4" rx="27" ry="18"/>
<text text-anchor="middle" x="27" y="-216.2" font-family="Times,serif" font-size="14.00" fill="#000000">3</text>
</g>
<!-- 2&#45;&gt;3 -->
<g id="edge2" class="edge">
<title>2&#45;&gt;3</title>
<path fill="none" stroke="#ff0000" d="M52.6778,-291.656C48.1635,-279.1287 42.0028,-262.0326 36.8474,-247.7264"/>
<polygon fill="#ff0000" stroke="#ff0000" points="39.992,-246.1288 33.309,-237.9076 33.4066,-248.502 39.992,-246.1288"/>
<text text-anchor="middle" x="51.25" y="-260.6" font-family="Times,serif" font-size="14.00" fill="#000000"> 2</text>
</g>
<!-- 1 -->
<g id="node2" class="node">
<title>1</title>
<ellipse fill="#ffb6c1" stroke="#ffb6c1" cx="59" cy="-131.6" rx="27" ry="18"/>
<text text-anchor="middle" x="59" y="-127.4" font-family="Times,serif" font-size="14.00" fill="#000000">1</text>
</g>
<!-- 1&#45;&gt;2 -->
<g id="edge1" class="edge">
<title>1&#45;&gt;2</title>
<path fill="none" stroke="#000000" d="M60.3,-149.6301C61.2631,-163.9312 62.4929,-184.4327 63,-202.4 63.4514,-218.3936 63.4514,-222.4064 63,-238.4 62.6038,-252.4369 61.7666,-268.0207 60.96,-280.9862"/>
<polygon fill="#000000" stroke="#000000" points="57.4541,-280.9645 60.3,-291.1699 64.4395,-281.4173 57.4541,-280.9645"/>
<text text-anchor="middle" x="69.25" y="-216.2" font-family="Times,serif" font-size="14.00" fill="#000000"> 3</text>
</g>
<!-- 4 -->
<g id="node4" class="node">
<title>4</title>
<ellipse fill="#ffb6c1" stroke="#ffb6c1" cx="59" cy="-42.8" rx="27" ry="18"/>
<text text-anchor="middle" x="59" y="-38.6" font-family="Times,serif" font-size="14.00" fill="#000000">4</text>
</g>
<!-- 1&#45;&gt;4 -->
<g id="edge4" class="edge">
<title>1&#45;&gt;4</title>
<path fill="none" stroke="#ff0000" d="M59,-113.2006C59,-101.0949 59,-85.0076 59,-71.2674"/>
<polygon fill="#ff0000" stroke="#ff0000" points="62.5001,-70.872 59,-60.872 55.5001,-70.8721 62.5001,-70.872"/>
<text text-anchor="middle" x="64.25" y="-83" font-family="Times,serif" font-size="14.00" fill="#000000"> 7</text>
</g>
<!-- 3&#45;&gt;1 -->
<g id="edge3" class="edge">
<title>3&#45;&gt;1</title>
<path fill="none" stroke="#ff0000" d="M33.3222,-202.856C37.8365,-190.3287 43.9972,-173.2326 49.1526,-158.9264"/>
<polygon fill="#ff0000" stroke="#ff0000" points="52.5934,-159.702 52.691,-149.1076 46.008,-157.3288 52.5934,-159.702"/>
<text text-anchor="middle" x="51.25" y="-171.8" font-family="Times,serif" font-size="14.00" fill="#000000"> 5</text>
</g>
</g>
</svg>
