<?xml version="1.0" encoding="UTF-8" standalone="no"?>
<!DOCTYPE svg PUBLIC "-//W3C//DTD SVG 1.1//EN"
 "http://www.w3.org/Graphics/SVG/1.1/DTD/svg11.dtd">
<!-- Generated by graphviz version 2.40.1 (20161225.0304)
 -->
<!-- Title: %0 Pages: 1 -->
<svg width="266pt" height="285pt"
 viewBox="0.00 0.00 266.15 284.80" xmlns="http://www.w3.org/2000/svg" xmlns:xlink="http://www.w3.org/1999/xlink">
<g id="graph0" class="graph" transform="scale(1 1) rotate(0) translate(4 280.8)">
<title>%0</title>
<polygon fill="#ffffff" stroke="transparent" points="-4,4 -4,-280.8 262.1454,-280.8 262.1454,4 -4,4"/>
<text text-anchor="middle" x="129.0727" y="-8.2" font-family="Times,serif" font-size="14.00" fill="#000000">&#45;&#45;&#45; cycle therefore answer does not exist &#45;&#45;&#45;</text>
<!-- 2 -->
<g id="node1" class="node">
<title>2</title>
<ellipse fill="#ffb6c1" stroke="#ffb6c1" cx="142.5727" cy="-258.8" rx="27" ry="18"/>
<text text-anchor="middle" x="142.5727" y="-254.6" font-family="Times,serif" font-size="14.00" fill="#000000">a</text>
</g>
<!-- 3 -->
<g id="node3" class="node">
<title>3</title>
<ellipse fill="#ffb6c1" stroke="#ffb6c1" cx="115.5727" cy="-186.8" rx="27" ry="18"/>
<text text-anchor="middle" x="115.5727" y="-182.6" font-family="Times,serif" font-size="14.00" fill="#000000">b</text>
</g>
<!-- 2&#45;&gt;3 -->
<g id="edge2" class="edge">
<title>2&#45;&gt;3</title>
<path fill="none" stroke="#ff0000" d="M135.8985,-241.0022C132.8251,-232.8064 129.1111,-222.9024 125.7032,-213.8145"/>
<polygon fill="#ff0000" stroke="#ff0000" points="128.9585,-212.5274 122.1701,-204.393 122.4042,-214.9853 128.9585,-212.5274"/>
</g>
<!-- 1 -->
<g id="node2" class="node">
<title>1</title>
<ellipse fill="#ffb6c1" stroke="#ffb6c1" cx="142.5727" cy="-114.8" rx="27" ry="18"/>
<text text-anchor="middle" x="142.5727" y="-110.6" font-family="Times,serif" font-size="14.00" fill="#000000">a</text>
</g>
<!-- 1&#45;&gt;2 -->
<g id="edge1" class="edge">
<title>1&#45;&gt;2</title>
<path fill="none" stroke="#ff0000" d="M146.3201,-132.7069C148.3193,-143.1759 150.5693,-156.6759 151.5727,-168.8 152.8924,-184.7455 152.8924,-188.8545 151.5727,-204.8 150.8672,-213.3247 149.5454,-222.5297 148.1278,-230.883"/>
<polygon fill="#ff0000" stroke="#ff0000" points="144.653,-230.4302 146.3201,-240.8931 151.5416,-231.6742 144.653,-230.4302"/>
</g>
<!-- 4 -->
<g id="node4" class="node">
<title>4</title>
<ellipse fill="none" stroke="#000000" cx="142.5727" cy="-42.8" rx="27" ry="18"/>
<text text-anchor="middle" x="142.5727" y="-38.6" font-family="Times,serif" font-size="14.00" fill="#000000">c</text>
</g>
<!-- 1&#45;&gt;4 -->
<g id="edge4" class="edge">
<title>1&#45;&gt;4</title>
<path fill="none" stroke="#000000" d="M142.5727,-96.6314C142.5727,-88.931 142.5727,-79.7743 142.5727,-71.2166"/>
<polygon fill="#000000" stroke="#000000" points="146.0728,-71.2132 142.5727,-61.2133 139.0728,-71.2133 146.0728,-71.2132"/>
</g>
<!-- 3&#45;&gt;1 -->
<g id="edge3" class="edge">
<title>3&#45;&gt;1</title>
<path fill="none" stroke="#ff0000" d="M122.2469,-169.0022C125.3203,-160.8064 129.0343,-150.9024 132.4422,-141.8145"/>
<polygon fill="#ff0000" stroke="#ff0000" points="135.7412,-142.9853 135.9753,-132.393 129.1869,-140.5274 135.7412,-142.9853"/>
</g>
</g>
</svg>
