<?xml version="1.0" encoding="UTF-8" standalone="no"?>
<!DOCTYPE svg PUBLIC "-//W3C//DTD SVG 1.1//EN"
 "http://www.w3.org/Graphics/SVG/1.1/DTD/svg11.dtd">
<!-- Generated by graphviz version 2.40.1 (20161225.0304)
 -->
<!-- Title: %0 Pages: 1 -->
<svg width="134pt" height="334pt"
 viewBox="0.00 0.00 134.00 334.40" xmlns="http://www.w3.org/2000/svg" xmlns:xlink="http://www.w3.org/1999/xlink">
<g id="graph0" class="graph" transform="scale(1 1) rotate(0) translate(4 330.4)">
<title>%0</title>
<polygon fill="#ffffff" stroke="transparent" points="-4,4 -4,-330.4 130,-330.4 130,4 -4,4"/>
<text text-anchor="middle" x="63" y="-41.8" font-family="Times,serif" font-size="14.00" fill="#000000">So answer =3</text>
<text text-anchor="middle" x="63" y="-25" font-family="Times,serif" font-size="14.00" fill="#000000">as 3 a&#39;s in path </text>
<text text-anchor="middle" x="63" y="-8.2" font-family="Times,serif" font-size="14.00" fill="#000000">(max possible)</text>
<!-- 2 -->
<g id="node1" class="node">
<title>2</title>
<ellipse fill="none" stroke="#000000" cx="27" cy="-236.4" rx="27" ry="18"/>
<text text-anchor="middle" x="27" y="-232.2" font-family="Times,serif" font-size="14.00" fill="#000000">b</text>
</g>
<!-- 3 -->
<g id="node3" class="node">
<title>3</title>
<ellipse fill="none" stroke="#000000" cx="27" cy="-164.4" rx="27" ry="18"/>
<text text-anchor="middle" x="27" y="-160.2" font-family="Times,serif" font-size="14.00" fill="#000000">a</text>
</g>
<!-- 2&#45;&gt;3 -->
<g id="edge3" class="edge">
<title>2&#45;&gt;3</title>
<path fill="none" stroke="#000000" d="M27,-218.2314C27,-210.531 27,-201.3743 27,-192.8166"/>
<polygon fill="#000000" stroke="#000000" points="30.5001,-192.8132 27,-182.8133 23.5001,-192.8133 30.5001,-192.8132"/>
</g>
<!-- 4 -->
<g id="node4" class="node">
<title>4</title>
<ellipse fill="#d3d3d3" stroke="#000000" cx="99" cy="-164.4" rx="27" ry="18"/>
<text text-anchor="middle" x="99" y="-160.2" font-family="Times,serif" font-size="14.00" fill="#000000">c</text>
</g>
<!-- 2&#45;&gt;4 -->
<g id="edge4" class="edge">
<title>2&#45;&gt;4</title>
<path fill="none" stroke="#000000" d="M42.2693,-221.1307C52.197,-211.203 65.3153,-198.0847 76.4363,-186.9637"/>
<polygon fill="#000000" stroke="#000000" points="79.1564,-189.1933 83.7527,-179.6473 74.2067,-184.2436 79.1564,-189.1933"/>
</g>
<!-- 1 -->
<g id="node2" class="node">
<title>1</title>
<ellipse fill="#d3d3d3" stroke="#000000" cx="63" cy="-308.4" rx="27" ry="18"/>
<text text-anchor="middle" x="63" y="-304.2" font-family="Times,serif" font-size="14.00" fill="#000000">a</text>
</g>
<!-- 1&#45;&gt;2 -->
<g id="edge1" class="edge">
<title>1&#45;&gt;2</title>
<path fill="none" stroke="#000000" d="M54.2854,-290.9708C50.0403,-282.4807 44.8464,-272.0929 40.1337,-262.6674"/>
<polygon fill="#000000" stroke="#000000" points="43.237,-261.0477 35.6343,-253.6687 36.976,-264.1782 43.237,-261.0477"/>
</g>
<!-- 6 -->
<g id="node6" class="node">
<title>6</title>
<ellipse fill="#d3d3d3" stroke="#000000" cx="99" cy="-236.4" rx="27" ry="18"/>
<text text-anchor="middle" x="99" y="-232.2" font-family="Times,serif" font-size="14.00" fill="#000000">a</text>
</g>
<!-- 1&#45;&gt;6 -->
<g id="edge2" class="edge">
<title>1&#45;&gt;6</title>
<path fill="none" stroke="#000000" d="M71.7146,-290.9708C75.9597,-282.4807 81.1536,-272.0929 85.8663,-262.6674"/>
<polygon fill="#000000" stroke="#000000" points="89.024,-264.1782 90.3657,-253.6687 82.763,-261.0477 89.024,-264.1782"/>
</g>
<!-- 5 -->
<g id="node5" class="node">
<title>5</title>
<ellipse fill="#d3d3d3" stroke="#000000" cx="99" cy="-92.4" rx="27" ry="18"/>
<text text-anchor="middle" x="99" y="-88.2" font-family="Times,serif" font-size="14.00" fill="#000000">a</text>
</g>
<!-- 4&#45;&gt;5 -->
<g id="edge6" class="edge">
<title>4&#45;&gt;5</title>
<path fill="none" stroke="#000000" d="M99,-146.2314C99,-138.531 99,-129.3743 99,-120.8166"/>
<polygon fill="#000000" stroke="#000000" points="102.5001,-120.8132 99,-110.8133 95.5001,-120.8133 102.5001,-120.8132"/>
</g>
<!-- 6&#45;&gt;4 -->
<g id="edge5" class="edge">
<title>6&#45;&gt;4</title>
<path fill="none" stroke="#000000" d="M99,-218.2314C99,-210.531 99,-201.3743 99,-192.8166"/>
<polygon fill="#000000" stroke="#000000" points="102.5001,-192.8132 99,-182.8133 95.5001,-192.8133 102.5001,-192.8132"/>
</g>
</g>
</svg>
