<?xml version="1.0" encoding="UTF-8" standalone="no"?>
<!DOCTYPE svg PUBLIC "-//W3C//DTD SVG 1.1//EN"
 "http://www.w3.org/Graphics/SVG/1.1/DTD/svg11.dtd">
<!-- Generated by graphviz version 2.40.1 (20161225.0304)
 -->
<!-- Title: %0 Pages: 1 -->
<svg width="134pt" height="229pt"
 viewBox="0.00 0.00 134.00 228.80" xmlns="http://www.w3.org/2000/svg" xmlns:xlink="http://www.w3.org/1999/xlink">
<g id="graph0" class="graph" transform="scale(1 1) rotate(0) translate(4 224.8)">
<title>%0</title>
<polygon fill="#ffffff" stroke="transparent" points="-4,4 -4,-224.8 130,-224.8 130,4 -4,4"/>
<text text-anchor="middle" x="63" y="-8.2" font-family="Times,serif" font-size="14.00" fill="#000000">First</text>
<!-- 2 -->
<g id="node1" class="node">
<title>2</title>
<ellipse fill="#ffb6c1" stroke="#000000" cx="27" cy="-130.8" rx="27" ry="18"/>
<text text-anchor="middle" x="27" y="-126.6" font-family="Times,serif" font-size="14.00" fill="#000000">2</text>
</g>
<!-- 4 -->
<g id="node4" class="node">
<title>4</title>
<ellipse fill="none" stroke="#000000" cx="27" cy="-58.8" rx="27" ry="18"/>
<text text-anchor="middle" x="27" y="-54.6" font-family="Times,serif" font-size="14.00" fill="#000000">4</text>
</g>
<!-- 2&#45;&gt;4 -->
<g id="edge3" class="edge">
<title>2&#45;&gt;4</title>
<path fill="none" stroke="#000000" d="M27,-112.6314C27,-101.8 27,-88.0876 27,-77.2133"/>
</g>
<!-- 5 -->
<g id="node5" class="node">
<title>5</title>
<ellipse fill="none" stroke="#000000" cx="99" cy="-58.8" rx="27" ry="18"/>
<text text-anchor="middle" x="99" y="-54.6" font-family="Times,serif" font-size="14.00" fill="#000000">5</text>
</g>
<!-- 2&#45;&gt;5 -->
<g id="edge4" class="edge">
<title>2&#45;&gt;5</title>
<path fill="none" stroke="#000000" d="M42.2693,-115.5307C54.488,-103.312 71.5398,-86.2602 83.7527,-74.0473"/>
</g>
<!-- 1 -->
<g id="node2" class="node">
<title>1</title>
<ellipse fill="none" stroke="#000000" cx="63" cy="-202.8" rx="27" ry="18"/>
<text text-anchor="middle" x="63" y="-198.6" font-family="Times,serif" font-size="14.00" fill="#000000">1</text>
</g>
<!-- 1&#45;&gt;2 -->
<g id="edge1" class="edge">
<title>1&#45;&gt;2</title>
<path fill="none" stroke="#000000" stroke-width="4" d="M54.2854,-185.3708C50.0403,-176.8807 44.8464,-166.4929 40.1337,-157.0674"/>
<polygon fill="#000000" stroke="#000000" stroke-width="4" points="43.237,-155.4477 35.6343,-148.0687 36.976,-158.5782 43.237,-155.4477"/>
</g>
<!-- 3 -->
<g id="node3" class="node">
<title>3</title>
<ellipse fill="none" stroke="#000000" cx="99" cy="-130.8" rx="27" ry="18"/>
<text text-anchor="middle" x="99" y="-126.6" font-family="Times,serif" font-size="14.00" fill="#000000">3</text>
</g>
<!-- 1&#45;&gt;3 -->
<g id="edge2" class="edge">
<title>1&#45;&gt;3</title>
<path fill="none" stroke="#000000" d="M71.7146,-185.3708C77.3747,-174.0506 84.7216,-159.3568 90.3657,-148.0687"/>
</g>
<!-- 3&#45;&gt;5 -->
<g id="edge5" class="edge">
<title>3&#45;&gt;5</title>
<path fill="none" stroke="#000000" d="M99,-112.6314C99,-101.8 99,-88.0876 99,-77.2133"/>
</g>
</g>
</svg>
