<?xml version="1.0" encoding="UTF-8" standalone="no"?>
<!DOCTYPE svg PUBLIC "-//W3C//DTD SVG 1.1//EN"
 "http://www.w3.org/Graphics/SVG/1.1/DTD/svg11.dtd">
<!-- Generated by graphviz version 2.40.1 (20161225.0304)
 -->
<!-- Title: G Pages: 1 -->
<svg width="226pt" height="232pt"
 viewBox="0.00 0.00 225.88 232.05" xmlns="http://www.w3.org/2000/svg" xmlns:xlink="http://www.w3.org/1999/xlink">
<g id="graph0" class="graph" transform="scale(1 1) rotate(0) translate(4 228.0531)">
<title>G</title>
<polygon fill="#ffffff" stroke="transparent" points="-4,4 -4,-228.0531 221.8782,-228.0531 221.8782,4 -4,4"/>
<!-- 1 -->
<g id="node1" class="node">
<title>1</title>
<ellipse fill="none" stroke="#000000" cx="59.7796" cy="-27.6185" rx="27" ry="18"/>
<text text-anchor="middle" x="59.7796" y="-23.4185" font-family="Times,serif" font-size="14.00" fill="#000000">1</text>
</g>
<!-- 2 -->
<g id="node2" class="node">
<title>2</title>
<ellipse fill="none" stroke="#000000" cx="118.7513" cy="-82.9868" rx="27" ry="18"/>
<text text-anchor="middle" x="118.7513" y="-78.7868" font-family="Times,serif" font-size="14.00" fill="#000000">2</text>
</g>
<!-- 1&#45;&#45;2 -->
<g id="edge1" class="edge">
<title>1&#45;&#45;2</title>
<path fill="none" stroke="#000000" d="M75.5829,-42.4562C84.044,-50.4003 94.4366,-60.1578 102.9043,-68.1082"/>
</g>
<!-- 3 -->
<g id="node3" class="node">
<title>3</title>
<ellipse fill="none" stroke="#000000" cx="163.9517" cy="-18" rx="27" ry="18"/>
<text text-anchor="middle" x="163.9517" y="-13.8" font-family="Times,serif" font-size="14.00" fill="#000000">3</text>
</g>
<!-- 2&#45;&#45;3 -->
<g id="edge2" class="edge">
<title>2&#45;&#45;3</title>
<path fill="none" stroke="#000000" d="M130.1573,-66.5879C136.957,-56.8116 145.5654,-44.4348 152.3921,-34.6197"/>
</g>
<!-- 4 -->
<g id="node4" class="node">
<title>4</title>
<ellipse fill="none" stroke="#000000" cx="73.5219" cy="-148.12" rx="27" ry="18"/>
<text text-anchor="middle" x="73.5219" y="-143.92" font-family="Times,serif" font-size="14.00" fill="#000000">4</text>
</g>
<!-- 2&#45;&#45;4 -->
<g id="edge3" class="edge">
<title>2&#45;&#45;4</title>
<path fill="none" stroke="#000000" d="M107.338,-99.4227C100.5339,-109.221 91.92,-121.6256 85.0889,-131.4628"/>
</g>
<!-- 5 -->
<g id="node5" class="node">
<title>5</title>
<ellipse fill="none" stroke="#000000" cx="190.8782" cy="-119.6362" rx="27" ry="18"/>
<text text-anchor="middle" x="190.8782" y="-115.4362" font-family="Times,serif" font-size="14.00" fill="#000000">5</text>
</g>
<!-- 2&#45;&#45;5 -->
<g id="edge4" class="edge">
<title>2&#45;&#45;5</title>
<path fill="none" stroke="#000000" d="M140.3918,-93.9828C149.5207,-98.6215 160.1258,-104.0102 169.2531,-108.6479"/>
</g>
<!-- 6 -->
<g id="node6" class="node">
<title>6</title>
<ellipse fill="none" stroke="#000000" cx="27" cy="-206.0531" rx="27" ry="18"/>
<text text-anchor="middle" x="27" y="-201.8531" font-family="Times,serif" font-size="14.00" fill="#000000">6</text>
</g>
<!-- 4&#45;&#45;6 -->
<g id="edge5" class="edge">
<title>4&#45;&#45;6</title>
<path fill="none" stroke="#000000" d="M60.563,-164.2576C54.1104,-172.2928 46.3325,-181.9786 39.8895,-190.002"/>
</g>
</g>
</svg>
